# xmcd
#
# Track frame offsets:
#	150
#	21216
#	31462
#	41842
#	57446
#	74039
#	89121
#	107546
#	127154
#	148728
#	163051
#	178216
#	194378
#	210191
#	224834
#	241309
#	262667
#	282249
#	289629
#	311142
#
# Disc length: 4400
#
# Revision: 2
# Processed by: cddbd v1.5.1PL0 Copyright (c) Steve Scherf et al.
# Submitted via: FreeRIP 2.51 
# Normalized: r0:TDELIM( - ),TSWAP
#
DISCID=44112e14
DTITLE=Johnny Cash - An All Star Tribute To Johnny Cash
DYEAR=1999
DGENRE=Country
TTITLE0=Sheryl Crow and Willie Nelson - Jackson
TTITLE1=Chris Isaak - Guess Things Happen That Way
TTITLE2=Chris Isaak - Get Rythm
TTITLE3=Willie Nelson - I Still Miss Someone
TTITLE4=June Carter Cash - Ring Of Fire
TTITLE5=Bob Dylan - Train Of Love
TTITLE6=The Mavericks - The Man In Black
TTITLE7=Kris Kristofferson - The Ballad Of Ira Hayes
TTITLE8=Trisha Yearwood - Sunday Morning Coming Down
TTITLE9=Brooks and Dunn - Ghost Riders In The Sky
TTITLE10=Lyle Lovett - Tenessee Flat Top Box
TTITLE11=Bruce Springsteen - Give My Love To Rose
TTITLE12=Emmylou Harris, Sheryl Crow and Mary Chapin Carpenter - Flesh And Blood
TTITLE13=Wyclea Jean - Delia's Gone
TTITLE14=Dave Matthews and Emmylou Harris - Long Black Veil
TTITLE15=Marty Stewart and The Fairfield Four - Belshazda
TTITLE16=U2 - Don't Take Your Guns To Town
TTITLE17=Tim Robbins - Liner Notes of Folsom Prison
TTITLE18=Johnny Cash - Folsom Prison Blues
TTITLE19=Johnny Cash - I Walk The Line
EXTD=
EXTT0=
EXTT1=
EXTT2=
EXTT3=
EXTT4=
EXTT5=
EXTT6=
EXTT7=
EXTT8=
EXTT9=
EXTT10=
EXTT11=
EXTT12=
EXTT13=
EXTT14=
EXTT15=
EXTT16=
EXTT17=
EXTT18=
EXTT19=
PLAYORDER=
